<?xml version="1.0" standalone="no"?>
<!DOCTYPE svg PUBLIC "-//W3C//DTD SVG 20010904//EN"
 "http://www.w3.org/TR/2001/REC-SVG-20010904/DTD/svg10.dtd">
<svg version="1.0" xmlns="http://www.w3.org/2000/svg"
 width="93.000000pt" height="93.000000pt" viewBox="0 0 93.000000 93.000000"
 preserveAspectRatio="xMidYMid meet">
<metadata>
Created by potrace 1.14, written by Peter Selinger 2001-2017
</metadata>
<g transform="translate(0.000000,93.000000) scale(0.100000,-0.100000)"
fill="#000000" stroke="none">
<path d="M0 465 l0 -465 465 0 465 0 0 465 0 465 -465 0 -465 0 0 -465z m501
215 c25 -14 25 -60 0 -91 -16 -19 -22 -21 -32 -12 -10 10 -9 20 6 47 26 48 12
56 -29 17 -38 -37 -90 -142 -84 -169 4 -14 13 -8 46 26 37 37 72 55 72 35 0
-5 -11 -37 -23 -73 -15 -42 -29 -66 -40 -68 -15 -3 -17 1 -11 23 6 24 4 26
-13 21 -33 -10 -67 25 -66 67 1 49 50 134 93 163 38 27 52 29 81 14z"/>
</g>
</svg>
